<svg width="353" height="327" viewBox="0 0 353 327" fill="none" xmlns="http://www.w3.org/2000/svg">
  <path
    d="M176.5 0C185.118 0 193.116 4.67143 197.735 12.4085L347.071 264.52C350.932 271.016 353 278.534 353 286.198C353 308.752 335.764 327 314.46 327H38.5404C17.2363 327 0 308.752 0 286.198C0 278.534 2.06836 271.016 5.9293 264.52L155.265 12.4085C159.815 4.67143 167.882 0 176.5 0ZM221.314 140.143L176.5 64.5241L121.964 156.566L134.581 174.376C138.994 180.58 147.819 180.58 152.231 174.376L169.881 149.486C174.018 143.573 180.568 140.143 187.531 140.143H221.314Z"
    fill="#2e2e2e" />
</svg>