<svg width="1594" height="361" viewBox="0 0 1594 361" fill="none" xmlns="http://www.w3.org/2000/svg">
<path d="M582 73.5V355H506V73.5H411.5V5.99999H676.5V73.5H582ZM728.492 355V5.99999H804.492V287.5H937.492V355H728.492ZM1216.93 355L1191.93 272H1075.43L1050.43 355H973.43L1088.43 5.99999H1182.43L1295.93 355H1216.93ZM1134.43 75H1131.93L1093.43 207.5H1173.43L1134.43 75ZM1457.21 361C1426.55 361 1400.55 355.833 1379.21 345.5C1357.88 334.833 1339.71 321.167 1324.71 304.5L1374.71 254C1398.38 280.667 1427.55 294 1462.21 294C1480.88 294 1494.71 290.167 1503.71 282.5C1512.71 274.833 1517.21 264.667 1517.21 252C1517.21 242.333 1514.55 234.333 1509.21 228C1503.88 221.333 1493.05 216.833 1476.71 214.5L1442.21 210C1405.21 205.333 1378.05 194.167 1360.71 176.5C1343.71 158.833 1335.21 135.333 1335.21 106C1335.21 90.3333 1338.21 76 1344.21 63C1350.21 50 1358.71 38.8333 1369.71 29.5C1381.05 20.1667 1394.71 13 1410.71 8C1427.05 2.66665 1445.55 -1.90735e-05 1466.21 -1.90735e-05C1492.55 -1.90735e-05 1515.71 4.16664 1535.71 12.5C1555.71 20.8333 1572.88 33 1587.21 49L1536.71 100C1528.38 90.3333 1518.21 82.5 1506.21 76.5C1494.55 70.1666 1479.71 67 1461.71 67C1444.71 67 1432.05 70 1423.71 76C1415.38 82 1411.21 90.3333 1411.21 101C1411.21 113 1414.38 121.667 1420.71 127C1427.38 132.333 1438.05 136.167 1452.71 138.5L1487.21 144C1523.21 149.667 1549.88 160.833 1567.21 177.5C1584.55 193.833 1593.21 217.167 1593.21 247.5C1593.21 264.167 1590.21 279.5 1584.21 293.5C1578.21 307.5 1569.38 319.5 1557.71 329.5C1546.38 339.5 1532.21 347.333 1515.21 353C1498.21 358.333 1478.88 361 1457.21 361Z" fill="white"/>
<path d="M199 7C208.717 7 217.734 11.9714 222.942 20.2054L391.315 288.507C395.668 295.421 398 303.421 398 311.578C398 335.58 378.566 355 354.546 355H43.4535C19.4336 355 0 335.58 0 311.578C0 303.421 2.33203 295.421 6.68516 288.507L175.058 20.2054C180.188 11.9714 189.283 7 199 7ZM249.527 156.143L199 75.6679L137.512 173.621L151.737 192.574C156.712 199.177 166.663 199.177 171.638 192.574L191.537 166.086C196.202 159.794 203.586 156.143 211.438 156.143H249.527Z" fill="white"/>
</svg>
